<?xml version="1.0" encoding="UTF-8"?>
<svg id="Layer_2" data-name="Layer 2" xmlns="http://www.w3.org/2000/svg" viewBox="0 0 489.7 283.64">
  <defs>
    <style>
      .cls-1, .cls-2 {
        fill: #00c9cd;
      }

      .cls-1, .cls-3 {
        fill-rule: evenodd;
      }

      .cls-4 {
        fill: #4d4d4d;
      }

      .cls-3 {
        fill: #00a5a9;
      }
    </style>
  </defs>
  <g id="Layer_1-2" data-name="Layer 1">
    <g>
      <g>
        <path class="cls-4" d="M108.37,171.32v11.88h-.9c-.23-.79-.63-1.79-1.18-3.02-.56-1.23-1.33-2.42-2.33-3.58-1-1.16-2.28-2.17-3.86-3.02-1.58-.86-3.5-1.29-5.77-1.29h-11.05v21.47h3.89c1.71,0,3.16-.24,4.34-.73,1.18-.49,2.17-1.18,2.95-2.08.79-.9,1.44-1.99,1.95-3.27.51-1.27.93-2.7,1.25-4.27h.9v21.61h-.9c-.32-1.34-.71-2.64-1.15-3.89-.44-1.25-1.03-2.35-1.77-3.3-.74-.95-1.66-1.7-2.75-2.26-1.09-.56-2.44-.83-4.07-.83h-4.66v25.09h11.4c2.13,0,4.05-.36,5.77-1.08,1.71-.72,3.23-1.73,4.55-3.02,1.32-1.3,2.42-2.81,3.3-4.55.88-1.74,1.55-3.6,2.02-5.59h.9v15.22h-44.4v-.97h6.39v-47.53h-6.39v-.97h41.56Z"/>
        <path class="cls-4" d="M131.86,171.32l12.02,34.61h.14l12.23-34.61h17.37v.97h-6.39v47.53h6.39v.97h-22.79v-.97h6.32v-47.53h-.14l-17.1,48.5h-1.11l-17.16-48.5h-.14v47.53h6.39v.97h-13.9v-.97h6.39v-47.53h-6.39v-.97h17.86Z"/>
        <path class="cls-4" d="M217.33,171.32v11.88h-.9c-.23-.79-.63-1.79-1.18-3.02-.56-1.23-1.33-2.42-2.33-3.58-1-1.16-2.28-2.17-3.86-3.02-1.58-.86-3.5-1.29-5.77-1.29h-11.05v21.47h3.89c1.71,0,3.16-.24,4.34-.73,1.18-.49,2.17-1.18,2.95-2.08.79-.9,1.44-1.99,1.95-3.27.51-1.27.93-2.7,1.25-4.27h.9v21.61h-.9c-.32-1.34-.71-2.64-1.15-3.89-.44-1.25-1.03-2.35-1.77-3.3-.74-.95-1.66-1.7-2.75-2.26-1.09-.56-2.44-.83-4.07-.83h-4.66v25.09h11.4c2.13,0,4.05-.36,5.77-1.08,1.71-.72,3.23-1.73,4.55-3.02,1.32-1.3,2.42-2.81,3.3-4.55.88-1.74,1.55-3.6,2.02-5.59h.9v15.22h-44.4v-.97h6.39v-47.53h-6.39v-.97h41.56Z"/>
        <path class="cls-4" d="M223.03,172.29v-.97h10.49c1.95,0,3.87-.04,5.77-.1,1.9-.07,3.82-.1,5.77-.1,1.81,0,3.72.19,5.73.56,2.01.37,3.86,1.01,5.52,1.91,1.67.9,3.04,2.12,4.13,3.65,1.09,1.53,1.63,3.45,1.63,5.77,0,1.85-.42,3.44-1.25,4.76s-1.91,2.4-3.23,3.23-2.79,1.47-4.41,1.91c-1.62.44-3.22.73-4.79.87v.35c2.27.42,4.3.83,6.08,1.25,1.78.42,3.32,1.04,4.62,1.88,1.3.83,2.33,1.99,3.09,3.47.76,1.48,1.24,3.47,1.42,5.98.23,2.92.42,5.26.56,7.02.14,1.76.33,3.13.59,4.1.25.97.6,1.62,1.04,1.95.44.32,1.08.49,1.91.49.93,0,1.69-.27,2.29-.8.6-.53,1.13-1.03,1.6-1.49l.69.63c-.46.46-.92.89-1.35,1.29-.44.39-.95.73-1.53,1.01-.58.28-1.29.5-2.12.66-.83.16-1.88.24-3.13.24-2.55,0-4.54-.41-5.98-1.22-1.44-.81-2.5-1.82-3.2-3.02-.7-1.21-1.12-2.51-1.29-3.93-.16-1.41-.27-2.75-.31-4-.09-1.9-.22-3.74-.38-5.52-.16-1.78-.54-3.37-1.15-4.76-.6-1.39-1.51-2.5-2.71-3.34-1.21-.83-2.9-1.25-5.07-1.25h-4.59v25.09h6.39v.97h-22.86v-.97h6.39v-47.53h-6.39ZM242.35,193.76c2.08,0,3.73-.28,4.93-.83,1.2-.56,2.11-1.31,2.71-2.26.6-.95.98-2.03,1.15-3.23.16-1.2.24-2.43.24-3.68,0-2.04-.14-3.79-.42-5.25-.28-1.46-.74-2.66-1.39-3.61-.65-.95-1.54-1.66-2.67-2.12-1.14-.46-2.58-.69-4.34-.69-.51,0-1.02.02-1.53.07-.51.05-1.02.09-1.53.14v21.47h2.85Z"/>
        <path class="cls-4" d="M272.09,219.82l20.71-50.45h1.88l21.89,50.45h5.98v.97h-23.35v-.97h6.46l-8.06-18.62h-16.68l-7.71,18.62h6.18v.97h-13.13v-.97h5.84ZM281.26,200.23h15.98l-8.2-18.97-7.78,18.97Z"/>
        <path class="cls-4" d="M344.01,171.32v.97h-6.39v47.53h11.47c1.53,0,3.07-.25,4.62-.76,1.55-.51,3.01-1.36,4.38-2.54,1.37-1.18,2.59-2.71,3.68-4.59,1.09-1.88,1.93-4.16,2.54-6.84h.9v15.71h-44.06v-.97h6.39v-47.53h-6.39v-.97h22.86Z"/>
        <path class="cls-4" d="M367.57,172.29v-.97h6.39c2.36,0,4.73-.04,7.09-.1s4.73-.1,7.09-.1c2.08,0,4.29.14,6.6.42,2.32.28,4.61.78,6.88,1.49,2.27.72,4.42,1.68,6.46,2.88,2.04,1.21,3.84,2.73,5.42,4.59,1.57,1.85,2.83,4.05,3.75,6.6.93,2.55,1.39,5.54,1.39,8.96s-.46,6.35-1.39,8.9c-.93,2.55-2.17,4.75-3.72,6.6-1.55,1.85-3.33,3.38-5.32,4.59-1.99,1.21-4.07,2.17-6.22,2.88-2.15.72-4.29,1.22-6.39,1.49-2.11.28-4.07.42-5.87.42-2.64,0-5.27-.02-7.89-.07-2.62-.05-5.25-.07-7.89-.07h-6.39v-.97h6.39v-47.53h-6.39ZM387.72,220.03c3.01,0,5.58-.36,7.71-1.08,2.13-.72,3.93-1.69,5.39-2.92,1.46-1.23,2.62-2.63,3.47-4.21.86-1.57,1.5-3.23,1.95-4.97.44-1.74.73-3.47.87-5.21.14-1.74.21-3.37.21-4.9,0-3.75-.23-7.15-.7-10.18-.46-3.03-1.38-5.63-2.74-7.78-1.37-2.15-3.29-3.81-5.77-4.97s-5.73-1.74-9.76-1.74c-.93,0-1.76.01-2.5.03-.74.02-1.34.08-1.81.17v47.53c1.34.14,2.57.21,3.68.21Z"/>
        <path class="cls-4" d="M22.86,281.7v.97H0v-.97h6.39v-47.53H0v-.97h6.39c2.36,0,4.73-.04,7.09-.1,2.36-.07,4.73-.1,7.09-.1,2.08,0,4.33.17,6.74.52,2.41.35,4.63,1,6.67,1.95,2.04.95,3.74,2.27,5.11,3.96,1.37,1.69,2.05,3.88,2.05,6.57,0,1.81-.44,3.51-1.32,5.11-.88,1.6-2.22,2.99-4.03,4.17-1.81,1.18-4.08,2.12-6.81,2.81-2.73.69-5.95,1.04-9.66,1.04h-2.85v22.58h6.39ZM18.62,258.14c3.94,0,6.79-.89,8.55-2.68,1.76-1.78,2.64-4.81,2.64-9.07,0-4.03-.76-7.11-2.29-9.24s-4.31-3.2-8.34-3.2c-.51,0-1,.02-1.46.07-.46.05-.88.09-1.25.14v23.97h2.15Z"/>
        <path class="cls-4" d="M45.31,267.24c.09.56.25,1.29.49,2.19.23.9.57,1.88,1.01,2.92.44,1.04,1,2.11,1.67,3.2.67,1.09,1.49,2.1,2.47,3.02,1.06,1.07,2.1,1.88,3.09,2.43,1,.56,1.95.96,2.85,1.22.9.26,1.76.39,2.57.42.81.02,1.56.04,2.26.04,2.46,0,4.47-.38,6.05-1.15,1.57-.76,2.81-1.7,3.72-2.81.9-1.11,1.54-2.28,1.91-3.51.37-1.23.56-2.3.56-3.23,0-1.71-.41-3.13-1.22-4.24-.81-1.11-1.89-2.04-3.23-2.78-1.34-.74-2.87-1.37-4.59-1.88-1.71-.51-3.47-1.03-5.28-1.56-1.81-.53-3.57-1.16-5.28-1.88-1.71-.72-3.24-1.64-4.59-2.78-1.34-1.13-2.42-2.54-3.23-4.2-.81-1.67-1.22-3.75-1.22-6.25,0-1.85.42-3.64,1.25-5.35.83-1.71,1.99-3.23,3.47-4.55,1.48-1.32,3.25-2.39,5.32-3.2,2.06-.81,4.3-1.22,6.71-1.22,1.53,0,2.87.14,4.03.42,1.16.28,2.18.57,3.06.87.88.3,1.66.59,2.33.87.67.28,1.29.42,1.84.42.65,0,1.08-.1,1.29-.31.21-.21.43-.59.66-1.15h1.11v13.2h-.9c-.56-1.62-1.15-3.22-1.77-4.79-.63-1.57-1.42-3-2.4-4.27-.97-1.27-2.2-2.3-3.68-3.09-1.48-.79-3.36-1.18-5.63-1.18-1.85,0-3.49.26-4.9.76-1.41.51-2.61,1.18-3.58,2.02-.97.83-1.71,1.76-2.22,2.78-.51,1.02-.76,2.06-.76,3.13,0,1.62.43,2.97,1.29,4.03.86,1.07,1.98,1.98,3.37,2.74,1.39.76,2.98,1.42,4.76,1.98,1.78.56,3.61,1.14,5.49,1.74,1.88.6,3.71,1.26,5.49,1.98,1.78.72,3.37,1.63,4.76,2.75,1.39,1.11,2.51,2.46,3.37,4.03.86,1.58,1.29,3.52,1.29,5.84s-.46,4.42-1.39,6.46c-.93,2.04-2.24,3.82-3.93,5.35-1.69,1.53-3.71,2.75-6.05,3.65-2.34.9-4.95,1.35-7.82,1.35-1.44,0-2.86-.14-4.27-.42-1.41-.28-2.73-.57-3.96-.87-1.23-.3-2.32-.59-3.27-.87-.95-.28-1.66-.42-2.12-.42-.65,0-1.11.1-1.39.31-.28.21-.53.64-.76,1.29h-1.11v-15.43h1.04Z"/>
        <path class="cls-4" d="M103.47,233.19v.97h-5.49l14.18,24.25,12.79-24.25h-6.05v-.97h13.27v.97h-6.05l-13.41,25.5v22.03h6.46v.97h-22.93v-.97h6.39v-19.39l-16.12-28.14h-5.42v-.97h22.38Z"/>
        <path class="cls-4" d="M173.03,247.37c-.51-1.53-1.12-3.14-1.84-4.83-.72-1.69-1.65-3.24-2.78-4.66-1.14-1.41-2.55-2.57-4.24-3.47-1.69-.9-3.79-1.36-6.29-1.36-3.38,0-6.05.63-7.99,1.88s-3.42,2.99-4.41,5.21c-1,2.22-1.63,4.88-1.91,7.96-.28,3.08-.42,6.45-.42,10.11,0,4.82.28,8.8.83,11.95.56,3.15,1.42,5.65,2.61,7.51,1.18,1.85,2.71,3.15,4.59,3.89,1.88.74,4.11,1.11,6.71,1.11,2.08,0,3.97-.42,5.66-1.25,1.69-.83,3.19-1.93,4.48-3.3,1.3-1.37,2.39-2.93,3.27-4.69.88-1.76,1.53-3.59,1.95-5.49h1.11v14.73h-1.11c-.23-.56-.51-.94-.83-1.15-.32-.21-.81-.31-1.46-.31-.56,0-1.27.13-2.15.38-.88.25-1.89.53-3.02.83-1.14.3-2.38.58-3.72.83-1.34.25-2.76.38-4.24.38-3.38,0-6.65-.66-9.8-1.98-3.15-1.32-5.92-3.13-8.3-5.42-2.39-2.29-4.3-4.99-5.73-8.1-1.44-3.1-2.15-6.46-2.15-10.08,0-3.94.8-7.5,2.4-10.7,1.6-3.2,3.65-5.93,6.15-8.2,2.5-2.27,5.29-4.02,8.37-5.25,3.08-1.23,6.1-1.84,9.07-1.84,1.48,0,2.86.14,4.13.42,1.27.28,2.46.57,3.54.87,1.09.3,2.07.59,2.95.87.88.28,1.62.42,2.22.42.65,0,1.13-.08,1.46-.24.32-.16.56-.57.69-1.22h1.11v14.18h-.9Z"/>
        <path class="cls-4" d="M200.97,233.19v.97h-6.39v22.79h20.08v-22.79h-6.39v-.97h22.86v.97h-6.39v47.53h6.39v.97h-22.86v-.97h6.39v-23.77h-20.08v23.77h6.39v.97h-22.86v-.97h6.39v-47.53h-6.39v-.97h22.86Z"/>
        <path class="cls-4" d="M236.09,247.37c1.6-3.2,3.65-5.93,6.15-8.2,2.5-2.27,5.3-4.02,8.41-5.25,3.1-1.23,6.14-1.84,9.1-1.84,3.2,0,6.36.6,9.49,1.81,3.13,1.21,5.91,2.92,8.34,5.14,2.43,2.22,4.4,4.92,5.91,8.1,1.5,3.17,2.26,6.75,2.26,10.74,0,3.47-.71,6.78-2.12,9.9-1.41,3.13-3.31,5.87-5.7,8.24-2.39,2.36-5.14,4.23-8.27,5.59-3.13,1.37-6.43,2.05-9.9,2.05s-6.72-.66-9.87-1.98c-3.15-1.32-5.92-3.13-8.3-5.42-2.39-2.29-4.3-4.99-5.73-8.1-1.44-3.1-2.15-6.46-2.15-10.08,0-3.94.8-7.5,2.4-10.7ZM245.86,270.06c.56,3.17,1.42,5.7,2.61,7.57s2.71,3.19,4.59,3.93c1.88.74,4.11,1.11,6.71,1.11,3.43,0,6.12-.64,8.06-1.91,1.95-1.27,3.41-3.03,4.38-5.28.97-2.25,1.59-4.91,1.84-7.99s.38-6.43.38-10.04c0-3.24-.1-6.33-.31-9.28-.21-2.94-.8-5.54-1.77-7.78s-2.44-4.03-4.41-5.35-4.69-1.98-8.17-1.98c-3.24,0-5.84.62-7.78,1.84-1.95,1.23-3.43,2.95-4.45,5.18-1.02,2.22-1.69,4.86-2.01,7.92-.33,3.06-.49,6.42-.49,10.08,0,4.82.28,8.81.83,11.99Z"/>
        <path class="cls-4" d="M311.94,233.19v.97h-6.39v47.53h11.47c1.53,0,3.07-.25,4.62-.76,1.55-.51,3.01-1.36,4.38-2.54,1.37-1.18,2.59-2.71,3.68-4.59,1.09-1.88,1.93-4.16,2.54-6.84h.9v15.71h-44.06v-.97h6.39v-47.53h-6.39v-.97h22.86Z"/>
        <path class="cls-4" d="M338.59,247.37c1.6-3.2,3.65-5.93,6.15-8.2,2.5-2.27,5.3-4.02,8.41-5.25,3.1-1.23,6.14-1.84,9.1-1.84,3.2,0,6.36.6,9.49,1.81,3.13,1.21,5.91,2.92,8.34,5.14,2.43,2.22,4.4,4.92,5.91,8.1,1.5,3.17,2.26,6.75,2.26,10.74,0,3.47-.71,6.78-2.12,9.9-1.41,3.13-3.31,5.87-5.7,8.24-2.39,2.36-5.14,4.23-8.27,5.59-3.13,1.37-6.43,2.05-9.9,2.05s-6.72-.66-9.87-1.98c-3.15-1.32-5.92-3.13-8.3-5.42-2.39-2.29-4.3-4.99-5.73-8.1-1.44-3.1-2.15-6.46-2.15-10.08,0-3.94.8-7.5,2.4-10.7ZM348.35,270.06c.56,3.17,1.42,5.7,2.61,7.57s2.71,3.19,4.59,3.93c1.88.74,4.11,1.11,6.71,1.11,3.43,0,6.12-.64,8.06-1.91,1.95-1.27,3.41-3.03,4.38-5.28.97-2.25,1.59-4.91,1.84-7.99s.38-6.43.38-10.04c0-3.24-.1-6.33-.31-9.28-.21-2.94-.8-5.54-1.77-7.78s-2.44-4.03-4.41-5.35-4.69-1.98-8.17-1.98c-3.24,0-5.84.62-7.78,1.84-1.95,1.23-3.43,2.95-4.45,5.18-1.02,2.22-1.69,4.86-2.01,7.92-.33,3.06-.49,6.42-.49,10.08,0,4.82.28,8.81.83,11.99Z"/>
        <path class="cls-4" d="M432.79,247.37c-1.21-4.54-3.01-8.07-5.42-10.6-2.41-2.52-5.63-3.76-9.66-3.72-3.2,0-5.77.62-7.71,1.84-1.95,1.23-3.44,2.83-4.48,4.79-1.04,1.97-1.73,4.22-2.05,6.74-.32,2.53-.49,5.08-.49,7.68v6.04c0,4.22.28,7.76.83,10.63.56,2.87,1.42,5.19,2.61,6.95,1.18,1.76,2.71,3.02,4.59,3.79,1.88.76,4.11,1.15,6.71,1.15,2.13,0,3.82-.38,5.07-1.15s2.21-1.81,2.88-3.13c.67-1.32,1.1-2.88,1.29-4.69.18-1.81.28-3.77.28-5.91v-2.64h-7.16v-.97h21.47v.97h-4.52v15.91h-1.25c-.09-.56-.36-.96-.8-1.22-.44-.25-.94-.38-1.49-.38-1.11,0-2.17.22-3.16.66s-2.07.92-3.23,1.42c-1.16.51-2.49.99-4,1.42-1.51.44-3.33.66-5.46.66-3.38,0-6.65-.66-9.8-1.98-3.15-1.32-5.92-3.13-8.3-5.42-2.39-2.29-4.3-4.99-5.73-8.1-1.44-3.1-2.15-6.46-2.15-10.08,0-3.94.8-7.5,2.4-10.7,1.6-3.2,3.65-5.93,6.15-8.2,2.5-2.27,5.29-4.02,8.37-5.25,3.08-1.23,6.1-1.84,9.07-1.84,1.39,0,2.73.14,4.03.42,1.3.28,2.5.57,3.61.87,1.11.3,2.11.59,2.99.87.88.28,1.62.42,2.22.42.65,0,1.11-.1,1.39-.31.28-.21.53-.59.76-1.15h1.18v14.18h-1.04Z"/>
        <path class="cls-4" d="M461,233.19v.97h-5.49l14.18,24.25,12.79-24.25h-6.05v-.97h13.27v.97h-6.04l-13.41,25.5v22.03h6.46v.97h-22.93v-.97h6.39v-19.39l-16.12-28.14h-5.42v-.97h22.38Z"/>
      </g>
      <path class="cls-3" d="M259.36,0v20.63h53.44v61.87h-67.03l-54.92,54.92h29.16l34.3-34.3h79.11V0h-74.06Z"/>
      <g>
        <polygon class="cls-1" points="149.68 82.5 192.33 82.5 192.33 103.12 149.68 103.12 149.68 82.5 149.68 82.5"/>
        <polygon class="cls-1" points="149.68 41.25 214.83 41.25 214.83 61.87 149.68 61.87 149.68 41.25 149.68 41.25"/>
        <rect class="cls-2" x="149.68" width="94.21" height="20.63"/>
      </g>
    </g>
  </g>
</svg>